<?xml version="1.0" encoding="UTF-8" standalone="no"?>
<svg width="16px" height="19px" viewBox="0 0 16 19" version="1.1" xmlns="http://www.w3.org/2000/svg" xmlns:xlink="http://www.w3.org/1999/xlink">
    <!-- Generator: Sketch 3.8.2 (29753) - http://www.bohemiancoding.com/sketch -->
    <title>Bell</title>
    <desc>Created with Sketch.</desc>
    <defs>
        <path d="M0.790428346,11.6016306 C1.43843004,10.8218738 2.09137996,10.6317895 2.09137996,9.33501107 C2.09137996,8.03823267 2.56104416,2.58880922 3.96132958,1.5975024 C5.36161499,0.606195586 7.29429726,0.310693916 7.29429726,0.310693916 L7.29429726,14.2857143 L0.251194109,14.2857143 C0.251194109,14.2857143 0.142426657,12.3813874 0.790428346,11.6016306 Z" id="path-1"></path>
        <path d="M0.790428346,11.6016306 C1.43843004,10.8218738 2.09137996,10.6317895 2.09137996,9.33501107 C2.09137996,8.03823267 2.56104416,2.58880922 3.96132958,1.5975024 C5.36161499,0.606195586 7.29429726,0.310693916 7.29429726,0.310693916 L7.29429726,14.2857143 L0.251194109,14.2857143 C0.251194109,14.2857143 0.142426657,12.3813874 0.790428346,11.6016306 Z" id="path-3"></path>
    </defs>
    <g id="Page-1" stroke="none" stroke-width="1" fill="none" fill-rule="evenodd">
        <g id="Artboard-2" transform="translate(-40.000000, -51.000000)">
            <g id="Bell" transform="translate(40.500000, 51.392857)">
                <circle id="Bell-Bottom" fill="#FFF585" cx="7.37601259" cy="15.9096993" r="2.12464962"></circle>
                <g id="Bell-Left" transform="translate(0.215371, 1.785714)">
                    <mask id="mask-2" fill="white">
                        <use xlink:href="#path-1"></use>
                    </mask>
                    <use id="Rectangle-1" fill="#FFF585" xlink:href="#path-1"></use>
                    <rect id="Rectangle-3" fill="#FFE184" mask="url(#mask-2)" x="0.251194109" y="11.7857143" width="7.04997361" height="2.5"></rect>
                    <rect id="Rectangle-3-Copy-2" fill="#FFE184" mask="url(#mask-2)" x="2.01368751" y="4.55357143" width="5.28060975" height="1.25"></rect>
                </g>
                <g id="Bell-Right" transform="translate(7.248806, 1.785714)">
                    <mask id="mask-4" fill="white">
                        <use xlink:href="#path-3"></use>
                    </mask>
                    <use id="Rectangle-1-Copy" fill="#F3E548" transform="translate(3.769310, 7.298204) scale(-1, 1) translate(-3.769310, -7.298204) " xlink:href="#path-3"></use>
                    <rect id="Rectangle-3-Copy" fill="#E2C774" mask="url(#mask-4)" x="0.251194109" y="11.7857143" width="7.04997361" height="2.5"></rect>
                    <rect id="Rectangle-3-Copy-3" fill="#E2C774" mask="url(#mask-4)" x="0.255328749" y="4.55357143" width="4.88162356" height="1.25"></rect>
                </g>
                <circle id="Bell-Top" fill="#FFF585" cx="7.73315545" cy="1.26684214" r="1.08945616"></circle>
            </g>
        </g>
    </g>
</svg>