<svg fill="#4B93FF" width="125" height="125" viewBox="0 0 100 100" xmlns="http://www.w3.org/2000/svg"><path d="m57.719 91.44c0 4.488-3.664 8.133-8.164 8.133-4.516 0-8.164-3.644-8.164-8.133v-2.324c0-.641.512-1.16 1.164-1.16h13.996c.645 0 1.168.52 1.168 1.16v2.324m-14.766-80.72v-3.523c0-3.527 2.879-6.391 6.414-6.391 3.547 0 6.414 2.863 6.414 6.391v3.457c16.344 2.934 28.766 17.188 28.766 34.31v24.98l7.523 10.125c.793 1.059.91 2.469.316 3.644-.598 1.176-1.809 1.918-3.129 1.918h-79.42c-1.316 0-2.531-.742-3.125-1.918-.594-1.176-.469-2.586.316-3.644l7.535-10.125v-24.98c0-16.996 12.223-31.16 28.391-34.24" fill-rule="evenodd"/></svg>